<svg xmlns="http://www.w3.org/2000/svg" width="146.711" height="128.581" viewBox="0 0 146.711 128.581">
  <g id="Groupe_564" data-name="Groupe 564" transform="translate(-331.441 -345.872)">
    <g id="Groupe_561" data-name="Groupe 561" transform="translate(343.759 455.759)">
      <g id="Groupe_560" data-name="Groupe 560" transform="translate(17.628 2.883)">
        <path id="Tracé_382" data-name="Tracé 382" d="M378.492,538.739V523.528h8.736l-.47,3.472h-4.434v2.338H386.7v3.472h-4.372v2.458h4.434l.47,3.472Z" transform="translate(-378.492 -523.228)" fill="#0b0b66"/>
        <path id="Tracé_383" data-name="Tracé 383" d="M401.377,538.868a7.563,7.563,0,0,1-7.471-7.98c0-4.61,3.072-7.831,7.471-7.831a10.9,10.9,0,0,1,4.476.9l-1.77,3.408a5.1,5.1,0,0,0-2.167-.51,4.1,4.1,0,0,0,0,8.208,5.261,5.261,0,0,0,2.168-.482l1.769,3.381A10.779,10.779,0,0,1,401.377,538.868Z" transform="translate(-384.096 -523.057)" fill="#0b0b66"/>
        <path id="Tracé_384" data-name="Tracé 384" d="M419.74,538.868a8.237,8.237,0,0,1-5.565-2.159,7.8,7.8,0,0,1-2.445-5.792c0-4.628,3.294-7.86,8.01-7.86a7.579,7.579,0,0,1,7.98,7.86A7.89,7.89,0,0,1,419.74,538.868Zm0-12.009a3.955,3.955,0,0,0-4.029,4.059,4.017,4.017,0,1,0,8.029,0A3.941,3.941,0,0,0,419.74,526.859Z" transform="translate(-390.576 -523.057)" fill="#0b0b66"/>
        <path id="Tracé_385" data-name="Tracé 385" d="M449.155,538.739l-6.406-8.828v8.828h-3.472V523.528h3.148l6.406,8.828v-8.828H452.3v15.211Z" transform="translate(-400.59 -523.228)" fill="#0b0b66"/>
        <path id="Tracé_386" data-name="Tracé 386" d="M470.579,538.868a8.236,8.236,0,0,1-5.565-2.159,7.8,7.8,0,0,1-2.445-5.792c0-4.628,3.294-7.86,8.01-7.86a7.578,7.578,0,0,1,7.98,7.86,7.949,7.949,0,0,1-1.771,5.111l-.137.171,2.154,2.37H474.5l-.475-.542-.178.092A7.262,7.262,0,0,1,470.579,538.868Zm0-12.009a3.955,3.955,0,0,0-4.029,4.059,4.017,4.017,0,1,0,8.029,0A3.941,3.941,0,0,0,470.579,526.859Z" transform="translate(-409.058 -523.057)" fill="#0b0b66"/>
        <path id="Tracé_387" data-name="Tracé 387" d="M495.3,539.039c-3.046,0-5.015-2.357-5.015-6v-9.507h3.831v9.3a2.457,2.457,0,0,0,4.914,0v-9.3h3.831v15.211h-3.2v-2.061l-.456.57A4.5,4.5,0,0,1,495.3,539.039Z" transform="translate(-419.134 -523.228)" fill="#0b0b66"/>
        <path id="Tracé_388" data-name="Tracé 388" d="M514.218,538.739V523.528h8.773V527h-4.941v2.338h4.372v3.472h-4.372v2.458h4.435l.47,3.472Z" transform="translate(-427.835 -523.228)" fill="#0b0b66"/>
        <path id="Tracé_389" data-name="Tracé 389" d="M533.8,538.739V527H530.67v-3.472h10.081V527h-3.125v11.74Z" transform="translate(-433.816 -523.228)" fill="#0b0b66"/>
        <path id="Tracé_390" data-name="Tracé 390" d="M549.047,538.739V523.528h8.185V527h-4.354v2.338h4.372v3.472h-4.372v2.458h4.372v3.472Z" transform="translate(-440.497 -523.228)" fill="#0b0b66"/>
      </g>
      <path id="Tracé_391" data-name="Tracé 391" d="M521.647,520.568l-2.8-.688-2.755.688h-1.133l3.15-2.041h1.445l3.24,2.041Z" transform="translate(-410.474 -518.527)" fill="#0b0b66"/>
      <path id="Tracé_392" data-name="Tracé 392" d="M352.007,531.387l-1.212,3.732h3.5v3.621h3.731v-3.621h2.3l2.38,3.621h4.441l-3.217-4.645a5.944,5.944,0,0,0,2.305-4.771,5.577,5.577,0,0,0-5.33-5.8h-6.608v6.194h3.731V527.26H360.9a2.132,2.132,0,0,1,0,4.127Z" transform="translate(-350.795 -520.345)" fill="#0b0b66"/>
    </g>
    <g id="Groupe_563" data-name="Groupe 563" transform="translate(331.441 345.872)">
      <g id="Groupe_562" data-name="Groupe 562" transform="translate(121.495)">
        <rect id="Rectangle_384" data-name="Rectangle 384" width="25.216" height="23.475" transform="translate(0 79.504)" fill="#e60000"/>
        <rect id="Rectangle_385" data-name="Rectangle 385" width="25.216" height="62.88" fill="#e60000"/>
      </g>
      <path id="Tracé_393" data-name="Tracé 393" d="M339.628,399.271l-8.187,25.216H355.08v24.47H380.3v-24.47h15.526l16.087,24.47h30.013L420.18,417.565a40.172,40.172,0,0,0,15.577-32.241c0-21.629-16.126-39.163-36.018-39.163H355.08v41.858H380.3V371.377H399.74c5.855,0,10.8,6.387,10.8,13.947s-4.947,13.947-10.8,13.947Z" transform="translate(-331.441 -345.977)" fill="#0b0b66"/>
    </g>
  </g>
</svg>
